<svg width="13" height="14" viewBox="0 0 13 14" fill="none" xmlns="http://www.w3.org/2000/svg">
<g clip-path="url(#clip0_944_3158)">
<path d="M7.57211 10.5002C7.57211 10.2763 7.64606 10.0523 7.79395 9.88168L10.2886 7.0002L7.79454 4.11816C7.49876 3.77637 7.49876 3.22266 7.79454 2.88086C8.09033 2.53906 8.5695 2.53906 8.86529 2.88086L11.8941 6.38086C12.1899 6.72266 12.1899 7.27637 11.8941 7.61816L8.86529 11.1182C8.5695 11.46 8.09033 11.46 7.79454 11.1182C7.64547 10.9486 7.57211 10.7244 7.57211 10.5002Z" fill="#00E5FF"/>
<path opacity="0.4" d="M9.5314 7.875H0.757212C0.338616 7.875 0 7.48398 0 6.97539C0 6.4668 0.338616 6.125 0.757212 6.125H9.5314L10.2886 7L9.5314 7.875Z" fill="#00E5FF"/>
</g>
<defs>
<clipPath id="clip0_944_3158">
<rect width="12.1154" height="14" fill="white"/>
</clipPath>
</defs>
</svg>
