<svg width="14.000000" height="14.000000" viewBox="0 0 14 14" fill="none" xmlns="http://www.w3.org/2000/svg" xmlns:xlink="http://www.w3.org/1999/xlink">
	<desc>
			Created with Pixso.
	</desc>
	<defs>
		<clipPath id="clip939_4638">
			<rect id="arrow-right-long 2" width="14.000000" height="14.000000" fill="white" fill-opacity="0"/>
		</clipPath>
	</defs>
	<rect id="arrow-right-long 2" width="14.000000" height="14.000000" fill="#FFFFFF" fill-opacity="0"/>
	<g clip-path="url(#clip939_4638)">
		<path id="Vector" d="M8.75 10.5C8.75 10.27 8.83 10.05 9 9.88L11.88 7L9 4.11C8.66 3.77 8.66 3.22 9 2.88C9.34 2.53 9.9 2.53 10.24 2.88L13.74 6.38C14.08 6.72 14.08 7.27 13.74 7.61L10.24 11.11C9.9 11.46 9.34 11.46 9 11.11C8.83 10.94 8.75 10.72 8.75 10.5Z" fill="#651FFF" fill-opacity="1.000000" fill-rule="nonzero"/>
		<g opacity="0.400000">
			<path id="Vector" d="M11.01 7.87L0.87 7.87C0.39 7.87 0 7.48 0 6.97C0 6.46 0.39 6.12 0.87 6.12L11.01 6.12L11.88 7L11.01 7.87Z" fill="#651FFF" fill-opacity="1.000000" fill-rule="nonzero"/>
		</g>
	</g>
</svg>
