<svg width="66" height="25" viewBox="0 0 66 25" fill="none" xmlns="http://www.w3.org/2000/svg">
<g clip-path="url(#clip0_2186_683)">
<rect y="0.446411" width="65.625" height="24.1071" rx="4" fill="#E2E8F0"/>
<path d="M0 4.44642C0 2.23728 1.79086 0.446411 4 0.446411H24.7642V24.5536H4C1.79086 24.5536 0 22.7627 0 20.5536V4.44642Z" fill="#2050E0"/>
<path d="M12.3821 4.0625L12.6629 4.94721H13.5717L12.8365 5.49397L13.1173 6.37868L12.3821 5.83157L11.647 6.37868L11.9278 5.49397L11.1924 4.94721H12.1012L12.3821 4.0625Z" fill="#F8D12E"/>
<path d="M12.3821 18.6212L12.6629 19.5062H13.5717L12.8365 20.0529L13.1173 20.9374L12.3821 20.3908L11.647 20.9374L11.9278 20.0529L11.1924 19.5062H12.1012L12.3821 18.6212Z" fill="#F8D12E"/>
<path d="M16.1209 5.38599L16.4016 6.27068H17.3106L16.5752 6.81766L16.8561 7.70216L16.1209 7.15518L15.3856 7.70216L15.6664 6.81766L14.9313 6.27068H15.8402L16.1209 5.38599Z" fill="#F8D12E"/>
<path d="M19.1438 14.9108L19.4244 15.7958H20.3333L19.598 16.3425L19.879 17.2269L19.1438 16.6804L18.4084 17.2269L18.6893 16.3425L17.954 15.7958H18.8629L19.1438 14.9108Z" fill="#F8D12E"/>
<path d="M19.8599 11.3419L20.1406 12.2266H21.0495L20.3143 12.7733L20.5951 13.6581L19.8599 13.1116L19.1247 13.6581L19.4057 12.7733L18.6702 12.2266H19.5789L19.8599 11.3419Z" fill="#F8D12E"/>
<path d="M4.90442 11.3419L5.18512 12.2266H6.0939L5.35857 12.7733L5.63961 13.6581L4.90442 13.1116L4.16904 13.6581L4.44993 12.7733L3.7146 12.2266H4.62353L4.90442 11.3419Z" fill="#F8D12E"/>
<path d="M5.5235 14.9108L5.8042 15.7958H6.71298L5.97784 16.3425L6.25849 17.2269L5.5235 16.6804L4.78817 17.2269L5.06901 16.3425L4.33368 15.7958H5.24266L5.5235 14.9108Z" fill="#F8D12E"/>
<path d="M19.1438 7.67859L19.4244 8.56359H20.3333L19.598 9.11031L19.879 9.99476L19.1438 9.44824L18.4084 9.99476L18.6893 9.11031L17.954 8.56359H18.8629L19.1438 7.67859Z" fill="#F8D12E"/>
<path d="M5.83307 7.67859L6.11377 8.56359H7.02255L6.28741 9.11031L6.56806 9.99476L5.83307 9.44824L5.09774 9.99476L5.37858 9.11031L4.64325 8.56359H5.55223L5.83307 7.67859Z" fill="#F8D12E"/>
<path d="M16.8009 17.9596L17.0815 18.8442H17.9904L17.255 19.3912L17.536 20.2758L16.8009 19.7291L16.0654 20.2758L16.3465 19.3912L15.6111 18.8442H16.52L16.8009 17.9596Z" fill="#F8D12E"/>
<path d="M8.64317 5.38599L8.92381 6.27068H9.83279L9.09746 6.81766L9.3785 7.70216L8.64317 7.15518L7.90798 7.70216L8.18882 6.81766L7.45349 6.27068H8.36228L8.64317 5.38599Z" fill="#F8D12E"/>
<path d="M7.96326 17.9596L8.24408 18.8446H9.15298L8.41771 19.3911L8.69853 20.2758L7.96326 19.7294L7.22813 20.2758L7.50895 19.3911L6.77368 18.8446H7.68239L7.96326 17.9596Z" fill="#F8D12E"/>
<path fill-rule="evenodd" clip-rule="evenodd" d="M29.0979 9.84569C29.0979 11.5477 30.4371 12.6154 32.0823 12.6154C33.1239 12.6154 33.9258 12.206 34.521 11.5718V9.47638H31.8591V10.6244H33.1239V11.074C32.9007 11.2506 32.5122 11.3951 32.0823 11.3951C31.1812 11.3951 30.5446 10.7208 30.5446 9.84569C30.5446 8.9706 31.1812 8.29623 32.0823 8.29623C32.6031 8.29623 33.0247 8.57722 33.2479 8.93046L34.4384 8.32031C34.0333 7.65396 33.2893 7.07593 32.0823 7.07593C30.4371 7.07593 29.0979 8.14369 29.0979 9.84569ZM35.356 12.5191V7.16424H37.6707C39.4068 7.16424 40.6551 8.1758 40.6551 9.83766C40.6551 11.4995 39.4068 12.5191 37.679 12.5191H35.356ZM36.7779 11.3149H37.6707C38.638 11.3149 39.2001 10.6325 39.2001 9.83766C39.2001 9.01074 38.6876 8.36848 37.679 8.36848H36.7779V11.3149ZM41.3661 12.5191V7.16424H44.1272C45.3673 7.16424 46.0452 7.9751 46.0452 8.94652C46.0452 9.90991 45.3673 10.7047 44.1272 10.7047H42.788V12.5191H41.3661ZM44.5985 8.93849C44.5985 8.56919 44.3174 8.32834 43.9371 8.32834H42.788V9.53258H43.9371C44.3174 9.53258 44.5985 9.29976 44.5985 8.93849ZM49.757 12.5191L48.8311 10.7047H48.1036V12.5191H46.6817V7.16424H49.4429C50.6664 7.16424 51.3608 7.95101 51.3608 8.94652C51.3608 9.8778 50.7739 10.3756 50.2613 10.5522L51.3856 12.5191H49.757ZM49.9141 8.93046C49.9141 8.56116 49.6 8.32834 49.228 8.32834H48.1036V9.53258H49.228C49.6 9.53258 49.9141 9.29976 49.9141 8.93046Z" fill="#2B3945"/>
<path fill-rule="evenodd" clip-rule="evenodd" d="M14.0625 11.9795H14.3278C14.6208 11.9795 14.8585 12.2187 14.8585 12.5137V14.6504C14.8585 14.9454 14.6208 15.1846 14.3278 15.1846H10.4363C10.1433 15.1846 9.90564 14.9454 9.90564 14.6504V12.5137C9.90564 12.2187 10.1433 11.9795 10.4363 11.9795H10.7016V11.1782C10.7016 10.2456 11.4556 9.48657 12.3821 9.48657C13.3085 9.48657 14.0625 10.2456 14.0625 11.1782V11.9795ZM11.5861 11.1782V11.9795H13.178V11.1782C13.178 10.7364 12.821 10.3769 12.3821 10.3769C11.9432 10.3769 11.5861 10.7364 11.5861 11.1782Z" fill="white"/>
<path d="M32.2812 16.425C32.2549 16.3421 32.2187 16.2659 32.1727 16.1964C32.1267 16.1269 32.0675 16.0667 31.9952 16.0159C31.9229 15.9651 31.8374 15.9264 31.7388 15.8996C31.6434 15.8702 31.5317 15.8555 31.4035 15.8555C31.2161 15.8555 31.0533 15.8863 30.9153 15.9477C30.7805 16.0092 30.6703 16.0921 30.5849 16.1964C30.4994 16.298 30.4353 16.4143 30.3926 16.5453C30.3531 16.6764 30.3334 16.81 30.3334 16.9464C30.3334 17.0828 30.3531 17.2165 30.3926 17.3475C30.4353 17.4785 30.4994 17.5961 30.5849 17.7004C30.6703 17.802 30.7805 17.8836 30.9153 17.9451C31.0533 18.0066 31.2161 18.0373 31.4035 18.0373C31.5415 18.0373 31.6632 18.0186 31.7684 17.9812C31.8736 17.9411 31.964 17.8876 32.0396 17.8207C32.1152 17.7512 32.1744 17.671 32.2171 17.5801C32.2598 17.4892 32.2878 17.3916 32.3009 17.2873H32.9025C32.8894 17.4584 32.8434 17.6149 32.7645 17.7566C32.6888 17.8983 32.5853 18.0213 32.4538 18.1256C32.3223 18.2272 32.1678 18.306 31.9903 18.3622C31.8127 18.4183 31.6171 18.4464 31.4035 18.4464C31.1405 18.4464 30.9038 18.4076 30.6934 18.3301C30.4862 18.2499 30.3104 18.1416 30.1657 18.0052C30.0211 17.8689 29.9093 17.7098 29.8304 17.528C29.7548 17.3461 29.717 17.1523 29.717 16.9464C29.717 16.7432 29.7548 16.5507 29.8304 16.3689C29.9093 16.1871 30.0211 16.028 30.1657 15.8916C30.3104 15.7552 30.4862 15.6469 30.6934 15.5667C30.9038 15.4865 31.1405 15.4464 31.4035 15.4464C31.6007 15.4464 31.7864 15.4691 31.9607 15.5146C32.1349 15.5574 32.2878 15.6215 32.4193 15.7071C32.5541 15.79 32.6625 15.8916 32.7447 16.0119C32.8269 16.1322 32.8779 16.2699 32.8976 16.425H32.2812Z" fill="#2B3945"/>
<path d="M35.0855 15.8555C34.8981 15.8555 34.7354 15.8863 34.5973 15.9477C34.4625 16.0092 34.3524 16.0921 34.2669 16.1964C34.1814 16.298 34.1173 16.4143 34.0746 16.5453C34.0351 16.6764 34.0154 16.81 34.0154 16.9464C34.0154 17.0828 34.0351 17.2165 34.0746 17.3475C34.1173 17.4785 34.1814 17.5961 34.2669 17.7004C34.3524 17.802 34.4625 17.8836 34.5973 17.9451C34.7354 18.0066 34.8981 18.0373 35.0855 18.0373C35.2729 18.0373 35.4339 18.0066 35.5687 17.9451C35.7068 17.8836 35.8186 17.802 35.9041 17.7004C35.9895 17.5961 36.052 17.4785 36.0914 17.3475C36.1342 17.2165 36.1555 17.0828 36.1555 16.9464C36.1555 16.81 36.1342 16.6764 36.0914 16.5453C36.052 16.4143 35.9895 16.298 35.9041 16.1964C35.8186 16.0921 35.7068 16.0092 35.5687 15.9477C35.4339 15.8863 35.2729 15.8555 35.0855 15.8555ZM35.0855 15.4464C35.3485 15.4464 35.5835 15.4865 35.7906 15.5667C36.001 15.6469 36.1786 15.7552 36.3232 15.8916C36.4679 16.028 36.578 16.1871 36.6536 16.3689C36.7325 16.5507 36.7719 16.7432 36.7719 16.9464C36.7719 17.1523 36.7325 17.3461 36.6536 17.528C36.578 17.7098 36.4679 17.8689 36.3232 18.0052C36.1786 18.1416 36.001 18.2499 35.7906 18.3301C35.5835 18.4076 35.3485 18.4464 35.0855 18.4464C34.8225 18.4464 34.5858 18.4076 34.3754 18.3301C34.1683 18.2499 33.9924 18.1416 33.8477 18.0052C33.7031 17.8689 33.5913 17.7098 33.5124 17.528C33.4368 17.3461 33.399 17.1523 33.399 16.9464C33.399 16.7432 33.4368 16.5507 33.5124 16.3689C33.5913 16.1871 33.7031 16.028 33.8477 15.8916C33.9924 15.7552 34.1683 15.6469 34.3754 15.5667C34.5858 15.4865 34.8225 15.4464 35.0855 15.4464Z" fill="#2B3945"/>
<path d="M37.4464 15.5146H38.3143L39.2857 17.7566H39.2956L40.2424 15.5146H41.1004V18.3782H40.5136V16.1683H40.5037L39.5273 18.3782H39.0194L38.043 16.1683H38.0332V18.3782H37.4464V15.5146Z" fill="#2B3945"/>
<path d="M41.9617 15.5146H43.5151C43.7649 15.5146 43.9687 15.544 44.1265 15.6028C44.2843 15.6617 44.406 15.7352 44.4914 15.8234C44.5769 15.9117 44.6344 16.0079 44.664 16.1122C44.6969 16.2165 44.7133 16.3127 44.7133 16.401C44.7133 16.4892 44.6969 16.5854 44.664 16.6897C44.6344 16.7913 44.5769 16.8863 44.4914 16.9745C44.406 17.0627 44.2843 17.1363 44.1265 17.1951C43.9687 17.2512 43.7649 17.2793 43.5151 17.2793H42.5781V18.3782H41.9617V15.5146ZM42.5781 16.8702H43.4805C43.5496 16.8702 43.6203 16.8622 43.6926 16.8461C43.7649 16.8301 43.8306 16.8047 43.8898 16.7699C43.9523 16.7325 44.0016 16.6844 44.0378 16.6256C44.0772 16.5641 44.0969 16.4879 44.0969 16.3969C44.0969 16.3034 44.0805 16.2258 44.0476 16.1643C44.0147 16.1028 43.9704 16.0547 43.9145 16.0199C43.8586 15.9825 43.7945 15.9571 43.7222 15.9437C43.6498 15.9304 43.5726 15.9237 43.4904 15.9237H42.5781V16.8702Z" fill="#2B3945"/>
<path d="M45.3741 15.5146H45.9905V17.9451H47.7805V18.3782H45.3741V15.5146Z" fill="#2B3945"/>
<path d="M48.3289 15.5146H48.9453V18.3782H48.3289V15.5146Z" fill="#2B3945"/>
<path d="M50.7665 15.5146H51.4224L52.7785 18.3782H52.1177L51.7873 17.6202H50.3819L50.0515 18.3782H49.4154L50.7665 15.5146ZM50.5496 17.2392H51.6246L51.0969 16.0079H51.0821L50.5496 17.2392Z" fill="#2B3945"/>
<path d="M53.2124 15.5146H53.8633L55.4709 17.6242H55.4807V15.5146H56.0675V18.3782H55.4166L53.814 16.2726H53.7992V18.3782H53.2124V15.5146Z" fill="#2B3945"/>
<path d="M56.5837 15.5146H59.434V15.9477H58.3146V18.3782H57.6982V15.9477H56.5837V15.5146Z" fill="#2B3945"/>
</g>
<defs>
<clipPath id="clip0_2186_683">
<rect width="65.625" height="24.1071" fill="white" transform="translate(0 0.446411)"/>
</clipPath>
</defs>
</svg>
