<svg width="48" height="48" viewBox="0 0 48 48" fill="none" xmlns="http://www.w3.org/2000/svg">
<circle cx="24" cy="24" r="24" fill="#34D399"/>
<path d="M13.1259 34.5C13.0293 34.5 12.9294 34.4868 12.8299 34.4604C12.2322 34.2978 11.8778 33.6828 12.0391 33.0833C12.0681 32.9766 15.0314 22.5 27.375 22.5C27.9961 22.5 28.4578 23.0039 28.4578 23.625C28.4578 24.2461 27.9539 24.75 27.375 24.75C16.7906 24.75 14.3109 33.3047 14.2125 33.6703C14.0733 34.1297 13.6209 34.5 13.1259 34.5Z" fill="white"/>
<path opacity="0.4" d="M36 19.7529C36 25.7482 32.7159 30.7826 27.7828 32.4138C26.8434 32.7859 25.822 32.9979 24.7505 32.9979C21.5503 32.9979 18.7833 31.1735 17.4145 28.5096C19.4128 26.5352 22.5426 24.7484 27.3755 24.7484C27.9966 24.7484 28.4583 24.2445 28.4583 23.6234C28.4583 23.0023 27.9544 22.4984 27.3755 22.4984C22.4161 22.4984 18.9895 24.1957 16.6411 26.2268C16.553 25.7482 16.5005 25.256 16.5005 24.7498C16.5005 20.193 20.1947 16.4951 24.7505 16.4951C25.3992 16.4951 26.0297 16.5612 26.6339 16.7051C29.2167 17.33 32.1745 16.3578 33.6323 13.8345C33.8978 13.3738 34.5708 13.3884 34.7883 13.8733C35.5641 15.5979 36 17.7138 36 19.7529Z" fill="white"/>
</svg>
