<svg width="64" height="64" viewBox="0 0 64 64" fill="none" xmlns="http://www.w3.org/2000/svg">
<circle cx="32" cy="32" r="32" fill="#ECECFE"/>
<g clip-path="url(#clip0_2139_5401)">
<path d="M44.189 23.5874L51.1407 30.5874C51.9165 31.3687 51.9165 32.6312 51.1407 33.4124L44.189 40.4124C43.4131 41.1937 42.1593 41.1937 41.3834 40.4124C40.6076 39.6312 40.6076 38.3687 41.3834 37.5874L46.9262 31.9999L41.3834 26.4124C40.6076 25.6312 40.6076 24.3687 41.3834 23.5874C42.1593 22.8062 43.4131 22.8062 44.189 23.5874ZM22.3407 26.4124L16.7948 31.9999L22.3407 37.5874C23.1166 38.3687 23.1166 39.6312 22.3407 40.4124C21.5648 41.1937 20.311 41.1937 19.5352 40.4124L12.5817 33.4124C11.8061 32.6312 11.8061 31.3687 12.5817 30.5874L19.5352 23.5874C20.311 22.8062 21.5648 22.8062 22.3407 23.5874C23.1166 24.3687 23.1166 25.6312 22.3407 26.4124Z" fill="#651FFF"/>
<path opacity="0.4" d="M37.7462 18.5494L29.8014 46.55C29.4972 47.6125 28.3986 48.225 27.3434 47.925C26.2883 47.6187 25.68 46.5125 25.9779 45.45L33.9228 17.4506C34.2269 16.3885 35.3255 15.7735 36.3807 16.077C37.4359 16.3804 38.0441 17.4875 37.7462 18.5494Z" fill="#651FFF"/>
</g>
<defs>
<clipPath id="clip0_2139_5401">
<rect width="39.7241" height="32" fill="white" transform="translate(12 16)"/>
</clipPath>
</defs>
</svg>
