<svg width="57" height="23" viewBox="0 0 57 23" fill="none" xmlns="http://www.w3.org/2000/svg">
<g clip-path="url(#clip0_2186_674)">
<path d="M4.09598 9.14536C4.09598 8.58995 4.59598 8.37633 5.4241 8.37633C6.6116 8.37633 8.1116 8.70388 9.2991 9.28777V5.94108C8.00223 5.47112 6.72098 5.28599 5.4241 5.28599C2.25223 5.28599 0.142853 6.79556 0.142853 9.31625C0.142853 13.2468 6.08035 12.6202 6.08035 14.3149C6.08035 14.97 5.45535 15.1836 4.58035 15.1836C3.28348 15.1836 1.62723 14.6994 0.314728 14.0443V17.4337C1.76785 18.0034 3.2366 18.2455 4.58035 18.2455C7.83035 18.2455 10.0647 16.7786 10.0647 14.2295C10.0491 9.98559 4.09598 10.7404 4.09598 9.14536ZM14.6585 2.43775L10.846 3.17829L10.8304 14.5855C10.8304 16.6932 12.5647 18.2455 14.8772 18.2455C16.1585 18.2455 17.096 18.0319 17.6116 17.7755V14.8846C17.1116 15.0697 14.6429 15.7248 14.6429 13.6171V8.56147H17.6116V5.52809H14.6429L14.6585 2.43775ZM22.471 6.58194L22.221 5.52809H18.846V17.9891H22.7522V9.54411C23.6741 8.44754 25.2366 8.64691 25.721 8.80357V5.52809C25.221 5.35719 23.3929 5.04389 22.471 6.58194ZM26.6741 5.52809H30.596V17.9891H26.6741V5.52809ZM26.6741 4.44576L30.596 3.67673V0.785767L26.6741 1.54055V4.44576ZM38.7522 5.28599C37.221 5.28599 36.2366 5.94108 35.6897 6.3968L35.4866 5.51385H32.0491V22.1191L35.9554 21.3643L35.971 17.3341C36.5335 17.7043 37.3616 18.2312 38.7366 18.2312C41.5335 18.2312 44.0804 16.1805 44.0804 11.6661C44.0647 7.5361 41.4866 5.28599 38.7522 5.28599ZM37.8147 15.0982C36.8929 15.0982 36.346 14.7991 35.971 14.4288L35.9554 9.14536C36.3616 8.73236 36.9241 8.44754 37.8147 8.44754C39.2366 8.44754 40.221 9.90014 40.221 11.7657C40.221 13.6741 39.2522 15.0982 37.8147 15.0982ZM56.3929 11.8085C56.3929 8.16271 54.4554 5.28599 50.7522 5.28599C47.0335 5.28599 44.7835 8.16271 44.7835 11.78C44.7835 16.0666 47.4397 18.2312 51.2522 18.2312C53.1116 18.2312 54.5179 17.8467 55.5804 17.3056V14.4573C54.5179 14.9415 53.2991 15.2406 51.7522 15.2406C50.2366 15.2406 48.8929 14.7564 48.721 13.0759H56.3616C56.3616 12.8908 56.3929 12.1503 56.3929 11.8085ZM48.6741 10.4555C48.6741 8.84629 49.7522 8.17695 50.7366 8.17695C51.6897 8.17695 52.7054 8.84629 52.7054 10.4555H48.6741Z" fill="#6772E5"/>
</g>
<defs>
<clipPath id="clip0_2186_674">
<rect width="56.25" height="21.4286" fill="white" transform="translate(0.142853 0.785767)"/>
</clipPath>
</defs>
</svg>
