<svg width="82" height="21" viewBox="0 0 82 21" fill="none" xmlns="http://www.w3.org/2000/svg">
<path fill-rule="evenodd" clip-rule="evenodd" d="M7.23618 5.28845H12.7776C15.7528 5.28845 16.8728 6.85942 16.6997 9.16739C16.4137 12.9777 14.2051 15.0858 11.2756 15.0858H9.79661C9.39466 15.0858 9.12431 15.3633 9.0156 16.1152L8.38766 20.4864C8.34617 20.7699 8.20314 20.934 7.98857 20.9564H4.50697C4.1794 20.9564 4.06354 20.6953 4.14937 20.1299L6.27209 6.11646C6.35505 5.55551 6.64971 5.28845 7.23618 5.28845Z" fill="#009EE3"/>
<path fill-rule="evenodd" clip-rule="evenodd" d="M31.294 5.0282C33.1636 5.0282 34.8887 6.08599 34.6526 8.72227C34.3666 11.8554 32.7573 13.589 30.2184 13.5965H27.9998C27.6808 13.5965 27.5263 13.868 27.4434 14.4245L27.0143 17.2697C26.9499 17.6993 26.7382 17.9112 26.4264 17.9112H24.3623C24.0333 17.9112 23.9189 17.6919 23.9918 17.201L25.6954 5.79805C25.7798 5.23707 25.9815 5.0282 26.3491 5.0282H31.2897H31.294ZM27.9326 11.1333H29.6133C30.6647 11.0915 31.3627 10.3321 31.4328 8.96247C31.4757 8.11654 30.9279 7.5108 30.0567 7.51528L28.4747 7.52274L27.9326 11.1333ZM40.2641 17.0384C40.4529 16.8594 40.6446 16.7669 40.6174 16.9877L40.5502 17.5158C40.5159 17.7918 40.6203 17.9381 40.8663 17.9381H42.7001C43.0091 17.9381 43.1593 17.8083 43.2351 17.3099L44.3651 9.91285C44.4223 9.54135 44.3351 9.35933 44.0647 9.35933H42.0479C41.8662 9.35933 41.7775 9.46526 41.7303 9.7547L41.6559 10.2097C41.6173 10.447 41.5129 10.4887 41.4156 10.25C41.0737 9.40558 40.2012 9.02663 38.9839 9.05647C36.156 9.11764 34.2493 11.3571 34.0447 14.2276C33.8874 16.4476 35.4122 18.1917 37.4233 18.1917C38.8824 18.1917 39.5346 17.7441 40.2699 17.0429L40.2641 17.0384ZM38.7279 15.9C37.5106 15.9 36.6624 14.887 36.8383 13.6457C37.0142 12.4044 38.1529 11.3914 39.3701 11.3914C40.5874 11.3914 41.4356 12.4044 41.2597 13.6457C41.0838 14.887 39.9466 15.9 38.7279 15.9ZM47.954 9.33546H46.0945C45.7111 9.33546 45.5552 9.63385 45.6768 10.0009L47.9855 17.0518L45.7211 20.4072C45.5309 20.6877 45.6782 20.9428 45.9457 20.9428H48.0355C48.1573 20.9575 48.2806 20.9354 48.3907 20.879C48.5008 20.8227 48.593 20.7345 48.6563 20.6251L55.7569 10.0024C55.9757 9.67563 55.8728 9.33248 55.5137 9.33248H53.5355C53.1965 9.33248 53.0606 9.47272 52.866 9.76664L49.9051 14.2425L48.582 9.75619C48.5047 9.48466 48.3116 9.33546 47.9554 9.33546H47.954Z" fill="#113984"/>
<path fill-rule="evenodd" clip-rule="evenodd" d="M63.1435 5.02813C65.013 5.02813 66.7381 6.08594 66.5021 8.72224C66.216 11.8554 64.6068 13.589 62.0678 13.5965H59.8507C59.5317 13.5965 59.3772 13.868 59.2942 14.4245L58.8651 17.2697C58.8008 17.6994 58.5891 17.9113 58.2772 17.9113H56.2131C55.8841 17.9113 55.7697 17.6919 55.8427 17.2011L57.5491 5.795C57.6335 5.23402 57.8352 5.02515 58.2028 5.02515H63.1435V5.02813ZM59.782 11.1333H61.4627C62.5141 11.0915 63.2121 10.3321 63.2822 8.96244C63.3251 8.1165 62.7773 7.51076 61.9062 7.51524L60.3241 7.5227L59.782 11.1333ZM72.1136 17.0385C72.3024 16.8594 72.494 16.7669 72.4669 16.9877L72.3996 17.5159C72.3653 17.7919 72.4697 17.9381 72.7158 17.9381H74.5495C74.8585 17.9381 75.0087 17.8083 75.0845 17.31L76.2145 9.91283C76.2717 9.54133 76.1845 9.35931 75.9142 9.35931H73.9001C73.7185 9.35931 73.6298 9.46524 73.5826 9.75468L73.5082 10.2097C73.4696 10.4469 73.3652 10.4887 73.2679 10.25C72.926 9.40556 72.0535 9.0266 70.8362 9.05644C68.0083 9.11761 66.1016 11.357 65.897 14.2276C65.7397 16.4476 67.2645 18.1917 69.2756 18.1917C70.7346 18.1917 71.3869 17.7442 72.1221 17.0429L72.1136 17.0385ZM70.5787 15.9001C69.3615 15.9001 68.5132 14.887 68.6892 13.6457C68.8651 12.4044 70.0037 11.3914 71.221 11.3914C72.4383 11.3914 73.2865 12.4044 73.1105 13.6457C72.9346 14.887 71.796 15.9001 70.5787 15.9001ZM79.0367 17.95H76.9197C76.8829 17.9518 76.8462 17.945 76.8122 17.9302C76.7781 17.9154 76.7477 17.8929 76.7229 17.8644C76.6982 17.8359 76.6798 17.802 76.6691 17.7653C76.6583 17.7285 76.6555 17.6897 76.6608 17.6516L78.5203 5.36383C78.5381 5.27996 78.5825 5.20483 78.6464 5.15066C78.7103 5.09648 78.7899 5.06644 78.8722 5.06543H80.9892C81.0261 5.06371 81.0628 5.0705 81.0968 5.0853C81.1308 5.10011 81.1613 5.12256 81.186 5.15107C81.2108 5.17957 81.2291 5.21342 81.2399 5.2502C81.2506 5.28698 81.2534 5.32578 81.2481 5.36383L79.3886 17.6516C79.3714 17.7361 79.3272 17.8119 79.2633 17.8666C79.1993 17.9214 79.1195 17.9519 79.0367 17.953V17.95Z" fill="#009EE3"/>
<path fill-rule="evenodd" clip-rule="evenodd" d="M3.77081 0.464233H9.31793C10.8799 0.464233 12.7337 0.516452 13.9725 1.6578C14.8007 2.4202 15.2355 3.63316 15.1354 4.94012C14.795 9.35783 12.2617 11.833 8.86306 11.833H6.12812C5.66181 11.833 5.35427 12.1553 5.22267 13.0266L4.45884 18.0992C4.40877 18.4275 4.27288 18.6214 4.02971 18.6453H0.606752C0.227694 18.6453 0.0932348 18.3469 0.191933 17.6875L2.65223 1.42804C2.75093 0.774561 3.09566 0.464233 3.77081 0.464233Z" fill="#113984"/>
<path fill-rule="evenodd" clip-rule="evenodd" d="M5.30212 12.5116L6.27051 6.11566C6.35491 5.55469 6.64957 5.28613 7.23604 5.28613H12.7774C13.6943 5.28613 14.4367 5.43533 15.0175 5.71134C14.461 9.64409 12.0222 11.8283 8.82951 11.8283H6.09886C5.73268 11.8298 5.46376 12.0208 5.30212 12.5116Z" fill="#172C70"/>
</svg>
