<svg width="169" height="40" viewBox="0 0 169 40" fill="none" xmlns="http://www.w3.org/2000/svg">
<g clip-path="url(#clip0_2102_104)">
<path d="M9.08646 19.4307C9.28757 19.4307 9.57617 19.475 10.4067 20.0146C10.945 20.3645 11.4557 20.7561 11.9344 21.186L11.909 26.1054C13.3386 26.084 14.4726 26.0926 15.2636 26.1054C16.0546 26.1183 16.8534 26.0697 17.6487 26.0604C18.1445 26.0621 18.639 26.0072 19.1227 25.8965C19.3828 25.8358 19.639 25.7589 19.8898 25.6661C19.8898 26.0775 19.9441 27.6074 21.095 28.9047C21.653 29.5285 22.3635 29.9918 23.1547 30.2478C22.1573 30.68 21.1161 31.0001 20.0499 31.2024C19.0994 31.3795 18.1345 31.4648 17.1681 31.4572C15.0075 31.47 12.4404 31.4872 9.48585 31.4865C8.80562 31.4865 8.32014 31.3434 7.94897 31.1402C7.61486 30.9548 7.31805 30.7075 7.07398 30.411C6.64125 29.8928 6.35153 29.2677 6.23428 28.5992L6.23004 21.1187C6.72099 20.6969 7.2433 20.3141 7.79232 19.9738C8.60874 19.4693 8.891 19.43 9.08646 19.4307Z" fill="#651FFF"/>
<path d="M9.08646 12.21C8.43184 12.2138 7.79799 12.4434 7.2892 12.8611L0.206726 18.0468L2.21638 20.8754C2.44387 21.1809 2.78029 21.3838 3.15355 21.4408C3.52682 21.4978 3.90724 21.4043 4.21333 21.1803L8.27286 18.2257C8.52881 18.0437 8.83608 17.9507 9.14855 17.9608C9.46103 17.9708 9.76186 18.0834 10.0059 18.2815C10.4999 18.6321 11.9979 19.7126 14.028 21.2282C14.3259 21.4206 14.6835 21.4943 15.0318 21.4351C15.3801 21.3759 15.6945 21.188 15.9142 20.9076L17.9605 18.0454L10.7588 12.7631C10.2722 12.4058 9.68726 12.2123 9.08646 12.21Z" fill="#00E5FF"/>
<path d="M6.20959 4.37628C6.28016 3.85607 6.50596 2.84641 7.31744 2.1244C7.91221 1.60436 8.67021 1.31618 9.45552 1.31152L17.281 1.33227C20.9673 1.2965 23.3396 2.57092 24.3946 3.24569C31.3303 7.68219 30.583 17.6722 30.5265 18.2969C30.3085 20.7298 29.4843 22.8543 29.3975 23.0668C29.0144 24.0364 28.3624 25.6478 26.9236 27.318C26.3344 28.0019 25.6773 28.6225 24.9626 29.1698C24.1308 28.9754 23.3678 28.5528 22.7568 27.9484C21.541 26.7319 21.409 25.2199 21.3864 24.8264C21.8052 24.5145 22.1827 24.1495 22.5098 23.7401C22.7247 23.464 22.9191 23.1719 23.0912 22.8664C25.7691 18.035 24.0368 12.3727 24.0368 12.3727C23.5676 10.8385 23.0842 9.30151 21.6376 8.13084C20.1558 6.9287 18.487 6.74193 17.715 6.70759L11.9076 6.67253L6.20959 6.75553V4.37628Z" fill="#651FFF"/>
<path d="M51.6929 18.934C51.8119 19.5036 51.909 20.1071 51.9843 20.7444L37.0086 23.9716C37.4508 25.2439 38.2505 26.1565 39.4077 26.7094C40.565 27.2622 41.8723 27.3815 43.3297 27.0671C44.3361 26.8581 45.2817 26.4174 46.0936 25.7791C46.899 25.1451 47.44 24.3673 47.7166 23.4457C48.4048 23.6537 49.858 24.083 52.076 24.7337C51.5745 26.5364 50.5798 28.0141 49.0919 29.1666C47.6039 30.3191 45.8786 31.1063 43.916 31.528C41.0554 32.1443 38.4394 31.6911 36.0679 30.1684C33.6965 28.6457 32.1879 26.3487 31.542 23.2775C30.898 20.2063 31.3578 17.5065 32.9215 15.1781C34.4852 12.8496 36.6974 11.377 39.558 10.7602C42.4177 10.1433 44.994 10.5837 47.2869 12.0811C49.5797 13.5785 51.0484 15.8628 51.6929 18.934ZM36.2246 20.4367L46.3201 18.2607C45.8441 16.967 45.0796 16.047 44.0268 15.5008C42.974 14.9546 41.8029 14.8205 40.5135 15.0986C39.1389 15.3949 38.0609 16.021 37.2795 16.977C36.4981 17.933 36.1465 19.0874 36.2246 20.4403V20.4367Z" fill="#651FFF"/>
<path d="M66.8238 10.9307H72.1457V23.0952C72.1457 28.5335 68.0488 31.9611 62.5159 31.9611C56.983 31.9611 52.886 28.535 52.886 23.0952V10.9307H58.208V22.623C58.208 25.3636 59.8126 27.1625 62.5123 27.1625C65.2121 27.1625 66.8238 25.3636 66.8238 22.623V10.9307Z" fill="#651FFF"/>
<path d="M73.1414 10.9307H78.4626V12.9006C80.1528 11.1876 82.3913 10.3311 85.1781 10.3311C91.049 10.3311 94.935 15.0853 94.935 21.2076C94.935 27.33 91.049 32.0005 85.1781 32.0005C82.6442 32.0005 80.1102 31.2291 78.4626 29.6878V39.9289L75.7812 39.9675C75.1292 39.9433 74.5057 39.6904 74.0171 39.252C73.1647 38.4756 73.1068 37.4395 73.0997 37.2484L73.1414 10.9307ZM84.0787 15.2992C80.6578 15.2992 78.6729 17.74 78.6729 21.2098C78.6729 24.5929 80.7002 27.0345 84.0787 27.0345C87.4573 27.0345 89.4416 24.5929 89.4416 21.2098C89.4444 17.74 87.4587 15.2992 84.0802 15.2992H84.0787Z" fill="#651FFF"/>
<path d="M96.7364 0.894727C97.2197 0.424478 97.8506 0.141331 98.5189 0.0947266H101.227V31.3598H95.9059C95.9002 21.8252 95.8948 12.2903 95.8896 2.75519C95.9398 2.05136 96.2408 1.39009 96.7364 0.894727Z" fill="#651FFF"/>
<path d="M113.095 10.2881C119.642 10.2881 124.076 15.0423 124.076 21.0809C124.076 27.2054 119.642 31.9575 113.095 31.9575C106.507 31.9575 102.158 27.2033 102.158 21.0809C102.156 15.0423 106.507 10.2881 113.095 10.2881ZM113.095 15.2562C109.674 15.2562 107.562 17.6977 107.562 21.0809C107.562 24.5071 109.674 26.9915 113.095 26.9915C116.601 26.9915 118.713 24.55 118.713 21.0809C118.713 17.6977 116.601 15.2562 113.095 15.2562Z" fill="#651FFF"/>
<path d="M133.537 10.2881C136.282 10.2881 138.52 11.1446 140.252 12.8577V10.9307H145.573V31.36H140.252V29.3901C138.563 31.1031 136.324 31.9596 133.537 31.9596C127.751 31.9596 123.781 27.1196 123.781 21.0831C123.781 15.0466 127.751 10.2881 133.537 10.2881ZM134.636 15.2562C131.299 15.2562 129.273 17.6977 129.273 21.0809C129.273 24.507 131.258 26.9915 134.636 26.9915C138.013 26.9915 140.041 24.55 140.041 21.0809C140.041 17.6977 138.013 15.2562 134.636 15.2562Z" fill="#651FFF"/>
<path d="M156.299 10.2879C158.833 10.2879 161.367 11.0586 163.014 12.6006V0.0947266H168.336L168.356 28.7301C168.369 28.9069 168.432 30.1169 167.51 31.02C167.029 31.4813 166.406 31.7595 165.746 31.8071L162.994 31.7355V29.3742C162.154 30.2104 161.16 30.8705 160.068 31.3169C158.423 31.9881 157.026 31.9609 156.299 31.9609C150.428 31.9609 146.542 27.2067 146.542 21.0844C146.542 14.962 150.43 10.2879 156.299 10.2879ZM157.397 15.2561C154.018 15.2561 152.034 17.6976 152.034 21.0808C152.034 24.5498 154.019 26.9913 157.397 26.9913C160.818 26.9913 162.803 24.5498 162.803 21.0808C162.805 17.6976 160.778 15.2561 157.399 15.2561H157.397Z" fill="#651FFF"/>
</g>
<defs>
<clipPath id="clip0_2102_104">
<rect width="169" height="40" fill="white"/>
</clipPath>
</defs>
</svg>
