<svg width="76" height="75" viewBox="0 0 76 75" fill="none" xmlns="http://www.w3.org/2000/svg">
<path d="M60.4562 38.6042C59.3289 38.6042 58.4086 37.684 58.4086 36.5567C58.4086 35.4179 59.3289 34.5091 60.4562 34.5091C61.5835 34.5091 62.5037 35.4294 62.5037 36.5567C62.5153 37.684 61.595 38.6042 60.4562 38.6042ZM60.4562 32.5536C58.2476 32.5536 56.4531 34.3481 56.4531 36.5567C56.4531 38.7652 58.2476 40.5597 60.4562 40.5597C62.6648 40.5597 64.4593 38.7652 64.4593 36.5567C64.4593 34.3366 62.6648 32.5536 60.4562 32.5536Z" fill="#E2E4E9"/>
<path d="M42.0743 38.6042C40.947 38.6042 40.0267 37.684 40.0267 36.5567C40.0267 35.4179 40.947 34.5091 42.0743 34.5091C43.2016 34.5091 44.1218 35.4294 44.1218 36.5567C44.1218 37.684 43.2016 38.6042 42.0743 38.6042ZM42.0743 32.5536C39.8657 32.5536 38.0712 34.3481 38.0712 36.5567C38.0712 38.7652 39.8657 40.5597 42.0743 40.5597C44.2829 40.5597 46.0774 38.7652 46.0774 36.5567C46.0659 34.3366 44.2829 32.5536 42.0743 32.5536Z" fill="#E2E4E9"/>
<path d="M56.2001 38.7193C55.947 38.7883 55.5559 38.8688 55.4179 38.8688C54.7277 38.8688 54.5896 38.6273 54.5896 37.9831V34.2791H56.2231V32.7377H54.5896V30.5521H52.7492L52.358 32.7377H51.0812H50.9777C49.9309 32.7377 49.1372 33.3819 48.6311 34.3826L47.9984 32.7377H46.6755V40.4102H48.9301V37.0744C48.9301 35.3949 49.9309 34.3136 51.1042 34.2791H52.335V38.0981C52.335 39.8926 53.2553 40.5598 54.7507 40.5598C55.5214 40.5598 56.1195 40.3987 56.4761 40.2837L56.2001 38.7193Z" fill="#E2E4E9"/>
<path d="M67.197 35.1533V40.4103H64.9999V32.7262H66.3342L66.7828 33.8995" fill="#E2E4E9"/>
<path d="M66.7714 33.911C67.4385 33.1402 68.3473 32.5536 69.4171 32.5536C71.2461 32.5536 71.9938 34.0145 71.9938 35.3603V40.4102H69.7392V35.4294C69.7392 34.7737 69.187 34.4171 68.6004 34.4171C67.9677 34.4171 67.5651 34.7852 67.2085 35.1648" fill="#E2E4E9"/>
<path d="M29.3174 29.954H31.8366L35.2875 36.5222V29.954H37.3695V40.4103H35.0919L31.3994 33.1748V40.4103H29.3174V29.954Z" fill="#E2E4E9"/>
<path d="M71.9938 32.7377V32.8872H72.2008V33.6119H72.3734V32.8872H72.5919V32.7377H71.9938Z" fill="#E2E4E9"/>
<path d="M73.2476 32.7377L73.0981 33.3128L72.937 32.7377H72.707V33.6119H72.8565V32.9217L73.0406 33.6119H73.1556L73.3396 32.9217V33.6119H73.4777V32.7377H73.2476Z" fill="#E2E4E9"/>
<path d="M32.0436 46.576C32.0436 45.9088 31.8366 45.1266 31.0774 45.1266C30.7208 45.1266 30.3987 45.2876 30.1111 45.5867V47.7838C30.3757 48.0714 30.6172 48.2209 30.9853 48.2209C31.664 48.2094 32.0436 47.6227 32.0436 46.576ZM29.9616 48.2094L29.8005 48.704H29.3864V42.964H30.1111V45.0575C30.3527 44.793 30.7438 44.5169 31.2384 44.5169C32.3312 44.5169 32.8143 45.5982 32.8143 46.576C32.8143 47.8873 32.1356 48.773 31.1234 48.773C30.5942 48.773 30.2376 48.5545 29.9616 48.2094Z" fill="#A0A0A0"/>
<path d="M33.2745 44.5975H34.0107C34.0107 44.5975 35.0459 48.06 35.0459 48.0715L36.0122 44.5975H36.7254L35.345 49.0147C35.1035 49.7739 34.7009 50.1995 33.9071 50.1995C33.7461 50.1995 33.5736 50.1765 33.4125 50.1305L33.5045 49.6129C33.6081 49.6244 33.7116 49.6589 33.8496 49.6589C34.2752 49.6589 34.5973 49.4633 34.7584 48.9572L33.2745 44.5975Z" fill="#A0A0A0"/>
<path d="M38.8764 48.1059L39.233 47.5997C39.5896 47.8643 40.0958 48.1519 40.855 48.1519C41.6027 48.1519 42.0398 47.7953 42.0398 47.1741C42.0398 46.4839 41.5106 46.2654 40.7514 46.0008C39.9347 45.7132 39.187 45.3451 39.187 44.2984C39.187 43.3666 39.9232 42.8605 40.8895 42.8605C41.5797 42.8605 41.9823 42.9755 42.4309 43.2286L42.1318 43.7807C41.7752 43.5852 41.3956 43.4701 40.878 43.4701C40.2683 43.4701 39.8542 43.7117 39.8542 44.2869C39.8542 44.8965 40.2568 45.0921 41.0965 45.3911C41.9017 45.6672 42.753 46.0238 42.753 47.1511C42.753 48.1519 42.0398 48.75 40.8665 48.75C39.9117 48.773 39.256 48.428 38.8764 48.1059Z" fill="#A0A0A0"/>
<path d="M43.1671 44.5975H43.9033C43.9033 44.5975 44.9386 48.06 44.9386 48.0715L45.9048 44.5975H46.618L45.2376 49.0147C44.9961 49.7739 44.5935 50.1995 43.7998 50.1995C43.6387 50.1995 43.4662 50.1765 43.3051 50.1305L43.3971 49.6129C43.5007 49.6244 43.6042 49.6589 43.7422 49.6589C44.1679 49.6589 44.4899 49.4633 44.651 48.9572L43.1671 44.5975Z" fill="#A0A0A0"/>
<path d="M51.7139 44.5168C52.5421 44.5168 52.7606 45.2185 52.7606 45.8972V48.704H52.0359V45.8972C52.0359 45.4946 51.9669 45.1265 51.4723 45.1265C51.1387 45.1265 50.7821 45.3336 50.4255 45.6902V48.704H49.7008V45.8972C49.7008 45.4946 49.6318 45.1265 49.1372 45.1265C48.7921 45.1265 48.424 45.3681 48.0904 45.7017V48.704H47.3657V44.5974H47.7913L47.9754 45.2645C48.355 44.8504 48.8151 44.5168 49.3672 44.5168C49.9194 44.5168 50.1494 44.8159 50.3105 45.23C50.6901 44.8044 51.1847 44.5168 51.7139 44.5168Z" fill="#A0A0A0"/>
<path d="M56.108 46.5874C55.2913 46.7369 54.7622 46.9095 54.5551 47.1626C54.4516 47.2891 54.4286 47.4041 54.4286 47.5767C54.4286 47.9793 54.6241 48.2093 55.0613 48.2093C55.4754 48.2093 55.8435 48.0023 56.108 47.8067V46.5874ZM56.108 45.9317C56.108 45.3796 55.9355 45.1035 55.3373 45.1035C54.9232 45.1035 54.5551 45.2645 54.164 45.4601L53.8994 44.977C54.3251 44.7124 54.7852 44.5168 55.3833 44.5168C56.4071 44.5168 56.8097 45.069 56.8097 45.9892V48.7155H56.3956L56.2116 48.2208C55.924 48.5084 55.4754 48.773 54.9462 48.773C54.2215 48.773 53.6924 48.3244 53.6924 47.6342C53.6924 47.1856 53.8649 46.8635 54.2445 46.6334C54.6126 46.4034 55.2683 46.2423 56.108 46.1158V45.9317Z" fill="#A0A0A0"/>
<path d="M58.0175 44.5974H58.4431L58.6272 45.2761C59.0068 44.8504 59.4899 44.5168 60.0996 44.5168C60.9853 44.5168 61.2154 45.2185 61.2154 45.8972V48.704H60.4907V45.8972C60.4907 45.4946 60.3872 45.1265 59.858 45.1265C59.4784 45.1265 59.0758 45.3681 58.7422 45.7132V48.704H58.0175V44.5974Z" fill="#A0A0A0"/>
<path d="M61.9861 45.1035V44.5974H62.6188L62.8028 43.4241H63.3204V44.5974H64.2407V45.1035H63.3204V47.6342C63.3204 48.0138 63.3895 48.2209 63.7806 48.2209C63.9416 48.2209 64.0681 48.1863 64.2522 48.1403L64.3557 48.635C64.1947 48.704 63.9416 48.7615 63.6885 48.7615C62.9408 48.7615 62.6072 48.4049 62.6072 47.6687V45.092H61.9861V45.1035Z" fill="#A0A0A0"/>
<path d="M67.4615 46.3688C67.4385 45.5061 67.151 45.0575 66.5758 45.0575C66.0582 45.0575 65.7131 45.4601 65.6556 46.3688H67.4615ZM66.6793 48.1978C67.151 48.1978 67.45 48.0138 67.7951 47.7952L68.0942 48.2323C67.6916 48.5544 67.3235 48.773 66.6103 48.773C65.552 48.773 64.8734 47.9563 64.8734 46.6564C64.8734 45.3911 65.529 44.5168 66.5528 44.5168C67.6111 44.5168 68.1747 45.3106 68.1747 46.6794V46.852H65.6211C65.6786 47.7262 65.9892 48.1978 66.6793 48.1978Z" fill="#A0A0A0"/>
<path d="M68.8419 46.6794C68.8419 45.6211 69.3136 44.5168 70.5789 44.5168C71.1081 44.5168 71.4992 44.6434 71.8673 44.954L71.5567 45.4371C71.2921 45.2415 70.9815 45.1035 70.5904 45.1035C69.7277 45.1035 69.6011 45.9892 69.6011 46.6909C69.6011 47.3696 69.7507 48.1978 70.6134 48.1978C71.0275 48.1978 71.3151 48.0368 71.5912 47.8067L71.9363 48.2323C71.6372 48.5314 71.2231 48.7845 70.5789 48.7845C69.3251 48.773 68.8419 47.7032 68.8419 46.6794Z" fill="#A0A0A0"/>
<path d="M13.7307 31.1963C11.5452 31.1963 9.4861 32.0475 7.93319 33.6004C6.38027 35.1533 5.52905 37.2124 5.52905 39.3979C5.52905 41.5835 6.38027 43.6426 7.93319 45.1955C9.4861 46.7484 11.5452 47.5996 13.7307 47.5996C15.9163 47.5996 17.9754 46.7484 19.5283 45.1955C21.0697 43.6426 21.9209 41.5835 21.9324 39.3979C21.9324 37.2124 21.0812 35.1533 19.5283 33.6004C17.9754 32.059 15.9163 31.1963 13.7307 31.1963ZM13.7307 51.3841C7.12797 51.3841 1.74454 46.0007 1.74454 39.3979C1.74454 32.7837 7.12797 27.4117 13.7307 27.4117C20.3335 27.4117 25.7169 32.7837 25.7169 39.3979C25.7169 46.0007 20.3335 51.3841 13.7307 51.3841Z" fill="#FFC20E"/>
<path d="M27.7185 25.5598H26.7867V26.4916H27.7185V25.5598Z" fill="#FFC20E"/>
<path d="M27.7185 23.6964H26.7867V24.6282H27.7185V23.6964Z" fill="#FFC20E"/>
<path d="M25.0383 26.4916H24.164V27.4003H25.0383V26.4916Z" fill="white"/>
<path d="M23.3128 28.2861H22.427V29.1604H23.3128V28.2861Z" fill="#E2E4E9"/>
<path d="M26.0045 27.4004H25.0267V28.2746H26.0045V27.4004Z" fill="#E2E4E9"/>
<path d="M22.4271 27.4463H21.5528V28.286H22.4271V27.4463Z" fill="#E2E4E9"/>
<path d="M25.0383 28.2861H24.164V29.1604H25.0383V28.2861Z" fill="#E2E4E9"/>
<path d="M26.7867 24.6395H25.8665V25.5713H26.7867V24.6395Z" fill="#E2E4E9"/>
<path d="M25.8665 25.5598H24.164V26.4916H25.8665V25.5598Z" fill="#E2E4E9"/>
<path d="M24.164 26.4916H23.3128V28.2861H24.164V26.4916Z" fill="#E2E4E9"/>
<path d="M23.3128 29.1603V30.0345H22.4271V29.1603H20.9662V29.7929H20.184V30.5752H21.0582V31.4494H20.184V30.5752H19.2522V31.944H18.378V32.8183H17.7913V33.6925H17.1472C16.4225 34.7623 14.628 38.0982 14.0758 39.4555C12.1088 36.7178 10.5789 35.6365 9.38258 35.2454C8.73841 35.0498 7.9562 35.7515 9.02598 36.8673C11.4991 39.5936 12.2814 41.8367 13.0291 43.6426C13.4317 44.5859 15.2146 44.7354 15.5712 43.7692C16.3304 41.7331 17.4347 39.4325 18.7461 37.5575V36.5798H19.4478V35.7055H20.184V34.6818H21.0582V33.704H20.1725V32.8068H21.0582V33.704H21.9209V32.8183H22.6111V31.7485H23.3933V31.0123H24.141V29.1603H23.3128Z" fill="#E2E4E9"/>
</svg>
